<svg width="74" height="117" viewBox="0 0 74 117" fill="none" xmlns="http://www.w3.org/2000/svg">
<g filter="url(#filter0_d)">
<path d="M67.7341 106.867C67.0207 107.543 66.1731 108.079 65.24 108.446C64.3068 108.812 63.3065 109 62.2962 109C61.2859 109 60.2856 108.812 59.3524 108.446C58.4193 108.079 57.5717 107.543 56.8583 106.867L5.79694 58.596C5.22732 58.0586 4.7754 57.4202 4.46706 56.7175C4.15872 56.0148 4 55.2615 4 54.5008C4 53.74 4.15872 52.9867 4.46706 52.284C4.7754 51.5813 5.22732 50.943 5.79694 50.4056L56.8583 2.13472C59.8691 -0.711578 64.7233 -0.711578 67.7341 2.13472C70.745 4.98102 70.745 9.56995 67.7341 12.4163L23.2475 54.5298L67.7956 96.6434C70.745 99.4316 70.745 104.079 67.7341 106.867Z" fill="#13BBAF"/>
</g>
<defs>
<filter id="filter0_d" x="0" y="0" width="74" height="117" filterUnits="userSpaceOnUse" color-interpolation-filters="sRGB">
<feFlood flood-opacity="0" result="BackgroundImageFix"/>
<feColorMatrix in="SourceAlpha" type="matrix" values="0 0 0 0 0 0 0 0 0 0 0 0 0 0 0 0 0 0 127 0"/>
<feOffset dy="4"/>
<feGaussianBlur stdDeviation="2"/>
<feColorMatrix type="matrix" values="0 0 0 0 0 0 0 0 0 0 0 0 0 0 0 0 0 0 0.25 0"/>
<feBlend mode="normal" in2="BackgroundImageFix" result="effect1_dropShadow"/>
<feBlend mode="normal" in="SourceGraphic" in2="effect1_dropShadow" result="shape"/>
</filter>
</defs>
</svg>
