<svg width="70" height="117" viewBox="0 0 70 117" fill="none" xmlns="http://www.w3.org/2000/svg">
<g filter="url(#filter0_d)">
<path d="M6.12854 2.13318C6.79877 1.45699 7.59497 0.920511 8.47155 0.554464C9.34813 0.188418 10.2879 0 11.2369 0C12.186 0 13.1257 0.188418 14.0023 0.554464C14.8788 0.920511 15.675 1.45699 16.3453 2.13318L64.312 50.404C64.8471 50.9414 65.2716 51.5798 65.5612 52.2825C65.8509 52.9852 66 53.7385 66 54.4992C66 55.26 65.8509 56.0133 65.5612 56.716C65.2716 57.4187 64.8471 58.057 64.312 58.5944L16.3453 106.865C13.5169 109.712 8.9569 109.712 6.12854 106.865C3.30017 104.019 3.30017 99.43 6.12854 96.5837L47.919 54.4702L6.07082 12.3566C3.30019 9.5684 3.30017 4.92139 6.12854 2.13318Z" fill="#13BBAF"/>
</g>
<defs>
<filter id="filter0_d" x="0" y="0" width="70" height="117" filterUnits="userSpaceOnUse" color-interpolation-filters="sRGB">
<feFlood flood-opacity="0" result="BackgroundImageFix"/>
<feColorMatrix in="SourceAlpha" type="matrix" values="0 0 0 0 0 0 0 0 0 0 0 0 0 0 0 0 0 0 127 0"/>
<feOffset dy="4"/>
<feGaussianBlur stdDeviation="2"/>
<feColorMatrix type="matrix" values="0 0 0 0 0 0 0 0 0 0 0 0 0 0 0 0 0 0 0.25 0"/>
<feBlend mode="normal" in2="BackgroundImageFix" result="effect1_dropShadow"/>
<feBlend mode="normal" in="SourceGraphic" in2="effect1_dropShadow" result="shape"/>
</filter>
</defs>
</svg>
